<svg width="121" height="109" xmlns="http://www.w3.org/2000/svg">
 <!-- Created with Method Draw - http://github.com/duopixel/Method-Draw/ -->

 <g>
  <title>background</title>
  <rect x="-1" y="-1" width="123" height="111" id="canvas_background" fill="none"/>
  <g id="canvasGrid" display="none">
   <rect id="svg_4" width="100%" height="100%" x="0" y="0" stroke-width="0" fill="url(#gridpattern)"/>
  </g>
 </g>
 <g>
  <title>Layer 1</title>
  <path stroke="#529D94" id="svg_5" d="m15.043593,87.717933c-7.756776,-2.956367 -10.333962,-11.733603 -10.428765,-19.052604c-1.051116,-5.419218 5.557996,-9.405076 3.382202,-14.977369c-0.825671,-8.237631 1.769346,-16.396748 5.647086,-23.655678c0.122629,-4.663906 4.108283,-6.474098 8.450748,-6.208621c14.030498,-1.711021 28.314574,-1.758989 42.350396,-0.142459c8.376143,1.493181 15.051368,7.009412 22.134982,11.175888c4.39382,3.133062 9.523274,5.197135 13.942712,8.208455c4.773092,3.85383 9.257327,8.152515 12.564785,13.264767c1.190012,5.110612 2.787387,10.191776 3.605204,15.336156c1.660205,4.813884 -1.738404,7.84182 -4.309341,11.186149c-3.90449,4.560293 -11.293277,6.359701 -16.885074,3.911079c-3.883827,-1.361825 -5.313267,-7.147965 -9.741137,-6.747975c-16.693795,-0.239254 -33.38759,-0.4785 -50.081389,-0.717732c-3.867364,4.877404 -9.214314,10.2078 -16.205919,9.448738c-1.519171,-0.122155 -3.012692,-0.485203 -4.426499,-1.028794l0.000008,0z" stroke-width="6.5" fill="none"/>
 </g>
</svg>